<svg xmlns="http://www.w3.org/2000/svg" viewBox="0 0 663.49 273.35"><defs><style>.cls-1{fill:#fff;}.cls-2{fill:#ff7d00;}</style></defs><title>DDT_Logo_Light</title><g id="Layer_2" data-name="Layer 2"><g id="Layer_1-2" data-name="Layer 1"><polygon class="cls-1" points="579.34 0 448.11 0 448.11 43.17 579.34 0"/><path class="cls-2" d="M492.38,46.9h40V199.74h4.57a42.33,42.33,0,0,0,42.33-42.33V46.9h41.91A42.34,42.34,0,0,0,663.49,4.56V0H634.92Z"/><path class="cls-1" d="M269.22,102V46.9h106V67.17l46.89-15.43V43.86A43.86,43.86,0,0,0,378.2,0H222.32V117.46Z"/><path class="cls-2" d="M375.17,85.46v67.39H269.22V120.31l-46.9,15.43v64H378.2a43.85,43.85,0,0,0,43.86-43.86V70Z"/><path class="cls-1" d="M114.76,152.85H46.9V46.9h106v93.41l46.89-15.42v-81A43.86,43.86,0,0,0,155.88,0H0V190.6Z"/><path class="cls-2" d="M27.79,199.74H155.88a43.85,43.85,0,0,0,43.86-43.86V143.17Z"/><path class="cls-1" d="M0,262.13V222.62H13.09c9.09,0,14.86,4.92,14.86,17.69v4.13c0,12.77-5.77,17.69-14.86,17.69Zm22.84-17.69v-4.13c0-9.79-3.45-13.23-9.75-13.23h-8v30.58h8C19.39,257.66,22.84,254.23,22.84,244.44Z"/><path class="cls-1" d="M49.84,245.58h7.08v-3.32c0-4.07-2-5-6.6-5-3.57,0-5.47.28-7.14,2.92l-3.57-2.41c2.09-3.32,5.12-4.75,10.77-4.75,7.55,0,11.3,2.35,11.3,9.22v19.87H56.92v-2.81c-1.67,2.64-3.69,3.27-7.55,3.27-6.9,0-10.65-3.27-10.65-8.82C38.72,247.59,43.3,245.58,49.84,245.58Zm7.08,3.9H49.84c-4.7,0-6.36,1.54-6.36,4.4,0,3.21,2.38,4.47,5.89,4.47,4.4,0,7.55-.8,7.55-7.21Z"/><path class="cls-1" d="M74.83,233.5h4.75v2.8c1.49-2.17,3.57-3.26,8-3.26,6.37,0,10.83,3.21,10.83,11.22v17.87H93.62V244.32c0-5.78-3.27-7-6.78-7-4.46,0-7.26,3-7.26,7v17.87H74.83Z"/><path class="cls-1" d="M115.15,232.3H110v-9.68h5.11Z"/><path class="cls-1" d="M143.52,240.2c-1.6-2-3.27-2.92-7.37-2.92-3.51,0-5.77,1.32-5.77,3.83,0,3.27,3,4.24,6.9,4.53,5.59.4,10.7,2,10.7,8.53,0,5-3.51,8.42-11.18,8.42-6.07,0-9.22-1.78-11.48-4.75l3.51-2.41c1.61,2.06,3.75,2.92,8,2.92,4,0,6.36-1.49,6.36-4.06,0-3.1-1.9-4.18-7.67-4.59-5-.34-9.93-2.29-9.93-8.53,0-4.75,3.57-8.13,10.65-8.13,4.81,0,8.5,1.2,10.82,4.75Z"/><path class="cls-1" d="M201.69,262.13V222.62h13.09c9.1,0,14.87,4.92,14.87,17.69v4.13c0,12.77-5.77,17.69-14.87,17.69Zm22.84-17.69v-4.13c0-9.79-3.45-13.23-9.75-13.23h-8v30.58h8C221.08,257.66,224.53,254.23,224.53,244.44Z"/><path class="cls-1" d="M258,239.68a5.73,5.73,0,0,0-5-2.4c-3.62,0-6.36,2.63-6.36,6.93v17.92H241.9V233.5h4.76v2.8c1.25-2,3.27-3.26,6.9-3.26,4,0,6.6,1.32,8.5,3.89Z"/><path class="cls-1" d="M271.34,222.62h5.36v5.15h-5.36Zm.3,10.88h4.76v28.63h-4.76Z"/><path class="cls-1" d="M316,233.5l-11.89,28.63H299.3L287.16,233.5h5.36l9,22.79,9-22.79Z"/><path class="cls-1" d="M347.47,257.78c-2.08,3.49-5.23,4.81-10.4,4.81-8,0-12.73-5-12.73-12.94v-3.78c0-8.13,4-12.83,11.78-12.83s11.77,4.64,11.77,12.83v3H329.1v.8c0,4.92,2.44,8.82,7.61,8.82,3.87,0,5.83-1.09,7.08-3.21ZM329.1,244.84h14c-.23-4.81-2.43-7.68-6.95-7.68S329.39,240.08,329.1,244.84Z"/><path class="cls-1" d="M376.38,239.68a5.71,5.71,0,0,0-5-2.4c-3.63,0-6.37,2.63-6.37,6.93v17.92h-4.76V233.5H365v2.8c1.25-2,3.27-3.26,6.9-3.26,4.05,0,6.6,1.32,8.51,3.89Z"/><path class="cls-1" d="M456.2,222.62v4.46H443.71v35H438.6v-35H426.11v-4.46Z"/><path class="cls-1" d="M480.71,239.68a5.73,5.73,0,0,0-5-2.4c-3.62,0-6.36,2.63-6.36,6.93v17.92h-4.76V233.5h4.76v2.8c1.25-2,3.27-3.26,6.9-3.26,4,0,6.6,1.32,8.5,3.89Z"/><path class="cls-1" d="M502.48,245.58h7.08v-3.32c0-4.07-2-5-6.6-5-3.57,0-5.48.28-7.14,2.92l-3.57-2.41c2.08-3.32,5.12-4.75,10.77-4.75,7.55,0,11.3,2.35,11.3,9.22v19.87h-4.76v-2.81c-1.67,2.64-3.69,3.27-7.56,3.27-6.89,0-10.64-3.27-10.64-8.82C491.36,247.59,495.94,245.58,502.48,245.58Zm7.08,3.9h-7.08c-4.7,0-6.36,1.54-6.36,4.4,0,3.21,2.37,4.47,5.88,4.47,4.41,0,7.56-.8,7.56-7.21Z"/><path class="cls-1" d="M528.06,222.62h5.35v5.15h-5.35Zm.29,10.88h4.76v28.63h-4.76Z"/><path class="cls-1" d="M547.15,233.5h4.76v2.8c1.48-2.17,3.57-3.26,8-3.26,6.36,0,10.82,3.21,10.82,11.22v17.87h-4.76V244.32c0-5.78-3.27-7-6.78-7-4.46,0-7.25,3-7.25,7v17.87h-4.76Z"/><path class="cls-1" d="M584.44,222.62h5.35v5.15h-5.35Zm.3,10.88h4.76v28.63h-4.76Z"/><path class="cls-1" d="M603.53,233.5h4.76v2.8c1.49-2.17,3.57-3.26,8-3.26,6.37,0,10.83,3.21,10.83,11.22v17.87h-4.76V244.32c0-5.78-3.27-7-6.78-7-4.46,0-7.26,3-7.26,7v17.87h-4.76Z"/><path class="cls-1" d="M658.73,233.5h4.76v28.06c0,8-4.76,11.79-12.73,11.79-5.18,0-8.33-1.31-10.41-4.81L644,266c1.25,2.12,3.21,3.21,7.08,3.21,5.17,0,7.61-2.75,7.61-7.67v-1.95c-1.61,2-4.16,3-8.09,3-8.09,0-11.89-5.5-11.89-12.94v-3.78c0-8.19,4.52-12.83,11.89-12.83,3.93,0,6.48,1.2,8.09,3.32Zm0,16.15v-3.78c0-5.39-2.74-8.71-7.61-8.71s-7.62,3.27-7.62,8.71v3.78c0,4.86,2.56,8.82,7.62,8.82C656.59,258.47,658.73,254.57,658.73,249.65Z"/></g></g></svg>